<svg xmlns="http://www.w3.org/2000/svg" xmlns:xlink="http://www.w3.org/1999/xlink" width="600" height="400" viewBox="0 0 2400 1600">
<defs>
  <clipPath id="clip650">
    <rect x="0" y="0" width="2400" height="1600"></rect>
  </clipPath>
</defs>
<path clip-path="url(#clip650)" d="
M0 1600 L2400 1600 L2400 0 L0 0  Z
  " fill="#ffffff" fill-rule="evenodd" fill-opacity="1"></path>
<defs>
  <clipPath id="clip651">
    <rect x="480" y="0" width="1681" height="1600"></rect>
  </clipPath>
</defs>
<path clip-path="url(#clip650)" d="
M141.853 1486.45 L2352.76 1486.45 L2352.76 47.2441 L141.853 47.2441  Z
  " fill="#ffffff" fill-rule="evenodd" fill-opacity="1"></path>
<defs>
  <clipPath id="clip652">
    <rect x="141" y="47" width="2212" height="1440"></rect>
  </clipPath>
</defs>
<polyline clip-path="url(#clip652)" style="stroke:#000000; stroke-linecap:butt; stroke-linejoin:round; stroke-width:2; stroke-opacity:0.1; fill:none" points="
  353.408,1486.45 353.408,47.2441 
  "></polyline>
<polyline clip-path="url(#clip652)" style="stroke:#000000; stroke-linecap:butt; stroke-linejoin:round; stroke-width:2; stroke-opacity:0.1; fill:none" points="
  651.374,1486.45 651.374,47.2441 
  "></polyline>
<polyline clip-path="url(#clip652)" style="stroke:#000000; stroke-linecap:butt; stroke-linejoin:round; stroke-width:2; stroke-opacity:0.1; fill:none" points="
  949.339,1486.45 949.339,47.2441 
  "></polyline>
<polyline clip-path="url(#clip652)" style="stroke:#000000; stroke-linecap:butt; stroke-linejoin:round; stroke-width:2; stroke-opacity:0.1; fill:none" points="
  1247.3,1486.45 1247.3,47.2441 
  "></polyline>
<polyline clip-path="url(#clip652)" style="stroke:#000000; stroke-linecap:butt; stroke-linejoin:round; stroke-width:2; stroke-opacity:0.1; fill:none" points="
  1545.27,1486.45 1545.27,47.2441 
  "></polyline>
<polyline clip-path="url(#clip652)" style="stroke:#000000; stroke-linecap:butt; stroke-linejoin:round; stroke-width:2; stroke-opacity:0.1; fill:none" points="
  1843.24,1486.45 1843.24,47.2441 
  "></polyline>
<polyline clip-path="url(#clip652)" style="stroke:#000000; stroke-linecap:butt; stroke-linejoin:round; stroke-width:2; stroke-opacity:0.1; fill:none" points="
  2141.2,1486.45 2141.2,47.2441 
  "></polyline>
<polyline clip-path="url(#clip650)" style="stroke:#000000; stroke-linecap:butt; stroke-linejoin:round; stroke-width:4; stroke-opacity:1; fill:none" points="
  141.853,1486.45 2352.76,1486.45 
  "></polyline>
<polyline clip-path="url(#clip650)" style="stroke:#000000; stroke-linecap:butt; stroke-linejoin:round; stroke-width:4; stroke-opacity:1; fill:none" points="
  353.408,1486.45 353.408,1467.55 
  "></polyline>
<polyline clip-path="url(#clip650)" style="stroke:#000000; stroke-linecap:butt; stroke-linejoin:round; stroke-width:4; stroke-opacity:1; fill:none" points="
  651.374,1486.45 651.374,1467.55 
  "></polyline>
<polyline clip-path="url(#clip650)" style="stroke:#000000; stroke-linecap:butt; stroke-linejoin:round; stroke-width:4; stroke-opacity:1; fill:none" points="
  949.339,1486.45 949.339,1467.55 
  "></polyline>
<polyline clip-path="url(#clip650)" style="stroke:#000000; stroke-linecap:butt; stroke-linejoin:round; stroke-width:4; stroke-opacity:1; fill:none" points="
  1247.3,1486.45 1247.3,1467.55 
  "></polyline>
<polyline clip-path="url(#clip650)" style="stroke:#000000; stroke-linecap:butt; stroke-linejoin:round; stroke-width:4; stroke-opacity:1; fill:none" points="
  1545.27,1486.45 1545.27,1467.55 
  "></polyline>
<polyline clip-path="url(#clip650)" style="stroke:#000000; stroke-linecap:butt; stroke-linejoin:round; stroke-width:4; stroke-opacity:1; fill:none" points="
  1843.24,1486.45 1843.24,1467.55 
  "></polyline>
<polyline clip-path="url(#clip650)" style="stroke:#000000; stroke-linecap:butt; stroke-linejoin:round; stroke-width:4; stroke-opacity:1; fill:none" points="
  2141.2,1486.45 2141.2,1467.55 
  "></polyline>
<path clip-path="url(#clip650)" d="M343.79 1544.91 L351.429 1544.91 L351.429 1518.55 L343.119 1520.21 L343.119 1515.95 L351.383 1514.29 L356.059 1514.29 L356.059 1544.91 L363.698 1544.91 L363.698 1548.85 L343.79 1548.85 L343.79 1544.91 Z" fill="#000000" fill-rule="evenodd" fill-opacity="1"></path><path clip-path="url(#clip650)" d="M646.027 1544.91 L662.346 1544.91 L662.346 1548.85 L640.402 1548.85 L640.402 1544.91 Q643.064 1542.16 647.647 1537.53 Q652.253 1532.88 653.434 1531.53 Q655.679 1529.01 656.559 1527.27 Q657.462 1525.51 657.462 1523.82 Q657.462 1521.07 655.517 1519.33 Q653.596 1517.6 650.494 1517.6 Q648.295 1517.6 645.841 1518.36 Q643.411 1519.13 640.633 1520.68 L640.633 1515.95 Q643.457 1514.82 645.911 1514.24 Q648.364 1513.66 650.401 1513.66 Q655.772 1513.66 658.966 1516.35 Q662.161 1519.03 662.161 1523.52 Q662.161 1525.65 661.351 1527.57 Q660.563 1529.47 658.457 1532.07 Q657.878 1532.74 654.776 1535.95 Q651.675 1539.15 646.027 1544.91 Z" fill="#000000" fill-rule="evenodd" fill-opacity="1"></path><path clip-path="url(#clip650)" d="M953.587 1530.21 Q956.943 1530.93 958.818 1533.2 Q960.716 1535.47 960.716 1538.8 Q960.716 1543.92 957.198 1546.72 Q953.679 1549.52 947.198 1549.52 Q945.022 1549.52 942.707 1549.08 Q940.416 1548.66 937.962 1547.81 L937.962 1543.29 Q939.906 1544.43 942.221 1545.01 Q944.536 1545.58 947.059 1545.58 Q951.457 1545.58 953.749 1543.85 Q956.064 1542.11 956.064 1538.8 Q956.064 1535.75 953.911 1534.03 Q951.781 1532.3 947.962 1532.3 L943.934 1532.3 L943.934 1528.45 L948.147 1528.45 Q951.596 1528.45 953.425 1527.09 Q955.253 1525.7 955.253 1523.11 Q955.253 1520.45 953.355 1519.03 Q951.48 1517.6 947.962 1517.6 Q946.04 1517.6 943.841 1518.01 Q941.642 1518.43 939.003 1519.31 L939.003 1515.14 Q941.665 1514.4 943.98 1514.03 Q946.318 1513.66 948.378 1513.66 Q953.702 1513.66 956.804 1516.09 Q959.906 1518.5 959.906 1522.62 Q959.906 1525.49 958.263 1527.48 Q956.619 1529.45 953.587 1530.21 Z" fill="#000000" fill-rule="evenodd" fill-opacity="1"></path><path clip-path="url(#clip650)" d="M1250.31 1518.36 L1238.51 1536.81 L1250.31 1536.81 L1250.31 1518.36 M1249.09 1514.29 L1254.97 1514.29 L1254.97 1536.81 L1259.9 1536.81 L1259.9 1540.7 L1254.97 1540.7 L1254.97 1548.85 L1250.31 1548.85 L1250.31 1540.7 L1234.71 1540.7 L1234.71 1536.19 L1249.09 1514.29 Z" fill="#000000" fill-rule="evenodd" fill-opacity="1"></path><path clip-path="url(#clip650)" d="M1535.55 1514.29 L1553.9 1514.29 L1553.9 1518.22 L1539.83 1518.22 L1539.83 1526.7 Q1540.85 1526.35 1541.87 1526.19 Q1542.89 1526 1543.9 1526 Q1549.69 1526 1553.07 1529.17 Q1556.45 1532.34 1556.45 1537.76 Q1556.45 1543.34 1552.98 1546.44 Q1549.51 1549.52 1543.19 1549.52 Q1541.01 1549.52 1538.74 1549.15 Q1536.5 1548.78 1534.09 1548.04 L1534.09 1543.34 Q1536.17 1544.47 1538.39 1545.03 Q1540.62 1545.58 1543.09 1545.58 Q1547.1 1545.58 1549.44 1543.48 Q1551.77 1541.37 1551.77 1537.76 Q1551.77 1534.15 1549.44 1532.04 Q1547.1 1529.94 1543.09 1529.94 Q1541.22 1529.94 1539.34 1530.35 Q1537.49 1530.77 1535.55 1531.65 L1535.55 1514.29 Z" fill="#000000" fill-rule="evenodd" fill-opacity="1"></path><path clip-path="url(#clip650)" d="M1843.64 1529.7 Q1840.49 1529.7 1838.64 1531.86 Q1836.81 1534.01 1836.81 1537.76 Q1836.81 1541.49 1838.64 1543.66 Q1840.49 1545.82 1843.64 1545.82 Q1846.79 1545.82 1848.62 1543.66 Q1850.47 1541.49 1850.47 1537.76 Q1850.47 1534.01 1848.62 1531.86 Q1846.79 1529.7 1843.64 1529.7 M1852.92 1515.05 L1852.92 1519.31 Q1851.16 1518.48 1849.36 1518.04 Q1847.58 1517.6 1845.82 1517.6 Q1841.19 1517.6 1838.73 1520.72 Q1836.3 1523.85 1835.96 1530.17 Q1837.32 1528.15 1839.38 1527.09 Q1841.44 1526 1843.92 1526 Q1849.13 1526 1852.14 1529.17 Q1855.17 1532.32 1855.17 1537.76 Q1855.17 1543.08 1852.02 1546.3 Q1848.87 1549.52 1843.64 1549.52 Q1837.64 1549.52 1834.47 1544.94 Q1831.3 1540.33 1831.3 1531.6 Q1831.3 1523.41 1835.19 1518.55 Q1839.08 1513.66 1845.63 1513.66 Q1847.39 1513.66 1849.17 1514.01 Q1850.98 1514.36 1852.92 1515.05 Z" fill="#000000" fill-rule="evenodd" fill-opacity="1"></path><path clip-path="url(#clip650)" d="M2130.09 1514.29 L2152.31 1514.29 L2152.31 1516.28 L2139.77 1548.85 L2134.88 1548.85 L2146.69 1518.22 L2130.09 1518.22 L2130.09 1514.29 Z" fill="#000000" fill-rule="evenodd" fill-opacity="1"></path><polyline clip-path="url(#clip652)" style="stroke:#000000; stroke-linecap:butt; stroke-linejoin:round; stroke-width:2; stroke-opacity:0.1; fill:none" points="
  141.853,1445.72 2352.76,1445.72 
  "></polyline>
<polyline clip-path="url(#clip652)" style="stroke:#000000; stroke-linecap:butt; stroke-linejoin:round; stroke-width:2; stroke-opacity:0.1; fill:none" points="
  141.853,1096.1 2352.76,1096.1 
  "></polyline>
<polyline clip-path="url(#clip652)" style="stroke:#000000; stroke-linecap:butt; stroke-linejoin:round; stroke-width:2; stroke-opacity:0.1; fill:none" points="
  141.853,746.49 2352.76,746.49 
  "></polyline>
<polyline clip-path="url(#clip652)" style="stroke:#000000; stroke-linecap:butt; stroke-linejoin:round; stroke-width:2; stroke-opacity:0.1; fill:none" points="
  141.853,396.877 2352.76,396.877 
  "></polyline>
<polyline clip-path="url(#clip652)" style="stroke:#000000; stroke-linecap:butt; stroke-linejoin:round; stroke-width:2; stroke-opacity:0.1; fill:none" points="
  141.853,47.2642 2352.76,47.2642 
  "></polyline>
<polyline clip-path="url(#clip650)" style="stroke:#000000; stroke-linecap:butt; stroke-linejoin:round; stroke-width:4; stroke-opacity:1; fill:none" points="
  141.853,1486.45 141.853,47.2441 
  "></polyline>
<polyline clip-path="url(#clip650)" style="stroke:#000000; stroke-linecap:butt; stroke-linejoin:round; stroke-width:4; stroke-opacity:1; fill:none" points="
  141.853,1445.72 160.751,1445.72 
  "></polyline>
<polyline clip-path="url(#clip650)" style="stroke:#000000; stroke-linecap:butt; stroke-linejoin:round; stroke-width:4; stroke-opacity:1; fill:none" points="
  141.853,1096.1 160.751,1096.1 
  "></polyline>
<polyline clip-path="url(#clip650)" style="stroke:#000000; stroke-linecap:butt; stroke-linejoin:round; stroke-width:4; stroke-opacity:1; fill:none" points="
  141.853,746.49 160.751,746.49 
  "></polyline>
<polyline clip-path="url(#clip650)" style="stroke:#000000; stroke-linecap:butt; stroke-linejoin:round; stroke-width:4; stroke-opacity:1; fill:none" points="
  141.853,396.877 160.751,396.877 
  "></polyline>
<polyline clip-path="url(#clip650)" style="stroke:#000000; stroke-linecap:butt; stroke-linejoin:round; stroke-width:4; stroke-opacity:1; fill:none" points="
  141.853,47.2642 160.751,47.2642 
  "></polyline>
<path clip-path="url(#clip650)" d="M93.9086 1431.51 Q90.2975 1431.51 88.4688 1435.08 Q86.6632 1438.62 86.6632 1445.75 Q86.6632 1452.86 88.4688 1456.42 Q90.2975 1459.96 93.9086 1459.96 Q97.5428 1459.96 99.3483 1456.42 Q101.177 1452.86 101.177 1445.75 Q101.177 1438.62 99.3483 1435.08 Q97.5428 1431.51 93.9086 1431.51 M93.9086 1427.81 Q99.7187 1427.81 102.774 1432.42 Q105.853 1437 105.853 1445.75 Q105.853 1454.48 102.774 1459.08 Q99.7187 1463.67 93.9086 1463.67 Q88.0984 1463.67 85.0197 1459.08 Q81.9642 1454.48 81.9642 1445.75 Q81.9642 1437 85.0197 1432.42 Q88.0984 1427.81 93.9086 1427.81 Z" fill="#000000" fill-rule="evenodd" fill-opacity="1"></path><path clip-path="url(#clip650)" d="M54.5569 1109.45 L62.1958 1109.45 L62.1958 1083.08 L53.8856 1084.75 L53.8856 1080.49 L62.1495 1078.82 L66.8254 1078.82 L66.8254 1109.45 L74.4642 1109.45 L74.4642 1113.38 L54.5569 1113.38 L54.5569 1109.45 Z" fill="#000000" fill-rule="evenodd" fill-opacity="1"></path><path clip-path="url(#clip650)" d="M93.9086 1081.9 Q90.2975 1081.9 88.4688 1085.47 Q86.6632 1089.01 86.6632 1096.14 Q86.6632 1103.24 88.4688 1106.81 Q90.2975 1110.35 93.9086 1110.35 Q97.5428 1110.35 99.3483 1106.81 Q101.177 1103.24 101.177 1096.14 Q101.177 1089.01 99.3483 1085.47 Q97.5428 1081.9 93.9086 1081.9 M93.9086 1078.2 Q99.7187 1078.2 102.774 1082.8 Q105.853 1087.39 105.853 1096.14 Q105.853 1104.86 102.774 1109.47 Q99.7187 1114.05 93.9086 1114.05 Q88.0984 1114.05 85.0197 1109.47 Q81.9642 1104.86 81.9642 1096.14 Q81.9642 1087.39 85.0197 1082.8 Q88.0984 1078.2 93.9086 1078.2 Z" fill="#000000" fill-rule="evenodd" fill-opacity="1"></path><path clip-path="url(#clip650)" d="M57.7745 759.835 L74.0939 759.835 L74.0939 763.77 L52.1495 763.77 L52.1495 759.835 Q54.8115 757.08 59.3949 752.451 Q64.0013 747.798 65.1819 746.455 Q67.4272 743.932 68.3068 742.196 Q69.2096 740.437 69.2096 738.747 Q69.2096 735.992 67.2652 734.256 Q65.3439 732.52 62.2421 732.52 Q60.043 732.52 57.5893 733.284 Q55.1588 734.048 52.381 735.599 L52.381 730.877 Q55.2051 729.742 57.6588 729.164 Q60.1124 728.585 62.1495 728.585 Q67.5198 728.585 70.7142 731.27 Q73.9087 733.955 73.9087 738.446 Q73.9087 740.576 73.0985 742.497 Q72.3115 744.395 70.205 746.988 Q69.6263 747.659 66.5245 750.876 Q63.4226 754.071 57.7745 759.835 Z" fill="#000000" fill-rule="evenodd" fill-opacity="1"></path><path clip-path="url(#clip650)" d="M93.9086 732.289 Q90.2975 732.289 88.4688 735.853 Q86.6632 739.395 86.6632 746.525 Q86.6632 753.631 88.4688 757.196 Q90.2975 760.738 93.9086 760.738 Q97.5428 760.738 99.3483 757.196 Q101.177 753.631 101.177 746.525 Q101.177 739.395 99.3483 735.853 Q97.5428 732.289 93.9086 732.289 M93.9086 728.585 Q99.7187 728.585 102.774 733.191 Q105.853 737.775 105.853 746.525 Q105.853 755.251 102.774 759.858 Q99.7187 764.441 93.9086 764.441 Q88.0984 764.441 85.0197 759.858 Q81.9642 755.251 81.9642 746.525 Q81.9642 737.775 85.0197 733.191 Q88.0984 728.585 93.9086 728.585 Z" fill="#000000" fill-rule="evenodd" fill-opacity="1"></path><path clip-path="url(#clip650)" d="M67.9133 395.523 Q71.2698 396.24 73.1448 398.509 Q75.0429 400.778 75.0429 404.111 Q75.0429 409.227 71.5244 412.027 Q68.0059 414.828 61.5245 414.828 Q59.3486 414.828 57.0338 414.389 Q54.7421 413.972 52.2884 413.115 L52.2884 408.602 Q54.2328 409.736 56.5477 410.314 Q58.8625 410.893 61.3856 410.893 Q65.7837 410.893 68.0754 409.157 Q70.3902 407.421 70.3902 404.111 Q70.3902 401.055 68.2374 399.342 Q66.1078 397.606 62.2884 397.606 L58.2606 397.606 L58.2606 393.764 L62.4735 393.764 Q65.9226 393.764 67.7513 392.398 Q69.58 391.009 69.58 388.416 Q69.58 385.754 67.6819 384.342 Q65.8069 382.907 62.2884 382.907 Q60.3671 382.907 58.168 383.324 Q55.969 383.741 53.3301 384.62 L53.3301 380.454 Q55.9921 379.713 58.3069 379.342 Q60.6449 378.972 62.705 378.972 Q68.0291 378.972 71.1309 381.403 Q74.2327 383.81 74.2327 387.93 Q74.2327 390.801 72.5892 392.791 Q70.9457 394.759 67.9133 395.523 Z" fill="#000000" fill-rule="evenodd" fill-opacity="1"></path><path clip-path="url(#clip650)" d="M93.9086 382.676 Q90.2975 382.676 88.4688 386.241 Q86.6632 389.782 86.6632 396.912 Q86.6632 404.018 88.4688 407.583 Q90.2975 411.125 93.9086 411.125 Q97.5428 411.125 99.3483 407.583 Q101.177 404.018 101.177 396.912 Q101.177 389.782 99.3483 386.241 Q97.5428 382.676 93.9086 382.676 M93.9086 378.972 Q99.7187 378.972 102.774 383.579 Q105.853 388.162 105.853 396.912 Q105.853 405.639 102.774 410.245 Q99.7187 414.828 93.9086 414.828 Q88.0984 414.828 85.0197 410.245 Q81.9642 405.639 81.9642 396.912 Q81.9642 388.162 85.0197 383.579 Q88.0984 378.972 93.9086 378.972 Z" fill="#000000" fill-rule="evenodd" fill-opacity="1"></path><path clip-path="url(#clip650)" d="M66.5939 34.0582 L54.7884 52.5072 L66.5939 52.5072 L66.5939 34.0582 M65.367 29.9842 L71.2466 29.9842 L71.2466 52.5072 L76.1772 52.5072 L76.1772 56.3961 L71.2466 56.3961 L71.2466 64.5442 L66.5939 64.5442 L66.5939 56.3961 L50.9921 56.3961 L50.9921 51.8822 L65.367 29.9842 Z" fill="#000000" fill-rule="evenodd" fill-opacity="1"></path><path clip-path="url(#clip650)" d="M93.9086 33.0629 Q90.2975 33.0629 88.4688 36.6277 Q86.6632 40.1693 86.6632 47.2989 Q86.6632 54.4054 88.4688 57.9701 Q90.2975 61.5118 93.9086 61.5118 Q97.5428 61.5118 99.3483 57.9701 Q101.177 54.4054 101.177 47.2989 Q101.177 40.1693 99.3483 36.6277 Q97.5428 33.0629 93.9086 33.0629 M93.9086 29.3592 Q99.7187 29.3592 102.774 33.9656 Q105.853 38.549 105.853 47.2989 Q105.853 56.0257 102.774 60.6322 Q99.7187 65.2155 93.9086 65.2155 Q88.0984 65.2155 85.0197 60.6322 Q81.9642 56.0257 81.9642 47.2989 Q81.9642 38.549 85.0197 33.9656 Q88.0984 29.3592 93.9086 29.3592 Z" fill="#000000" fill-rule="evenodd" fill-opacity="1"></path><polyline clip-path="url(#clip652)" style="stroke:#009af9; stroke-linecap:butt; stroke-linejoin:round; stroke-width:4; stroke-opacity:1; fill:none" points="
  204.426,87.9763 502.391,538.71 800.356,892.13 1098.32,903.35 1396.29,1071.38 1694.25,1031.51 1992.22,1260.98 2290.18,1445.72 
  "></polyline>
<line clip-path="url(#clip652)" x1="204.426" y1="87.9763" x2="188.426" y2="71.9763" style="stroke:#009af9; stroke-width:3.2; stroke-opacity:1"></line>
<line clip-path="url(#clip652)" x1="204.426" y1="87.9763" x2="188.426" y2="103.976" style="stroke:#009af9; stroke-width:3.2; stroke-opacity:1"></line>
<line clip-path="url(#clip652)" x1="204.426" y1="87.9763" x2="220.426" y2="103.976" style="stroke:#009af9; stroke-width:3.2; stroke-opacity:1"></line>
<line clip-path="url(#clip652)" x1="204.426" y1="87.9763" x2="220.426" y2="71.9763" style="stroke:#009af9; stroke-width:3.2; stroke-opacity:1"></line>
<line clip-path="url(#clip652)" x1="502.391" y1="538.71" x2="486.391" y2="522.71" style="stroke:#009af9; stroke-width:3.2; stroke-opacity:1"></line>
<line clip-path="url(#clip652)" x1="502.391" y1="538.71" x2="486.391" y2="554.71" style="stroke:#009af9; stroke-width:3.2; stroke-opacity:1"></line>
<line clip-path="url(#clip652)" x1="502.391" y1="538.71" x2="518.391" y2="554.71" style="stroke:#009af9; stroke-width:3.2; stroke-opacity:1"></line>
<line clip-path="url(#clip652)" x1="502.391" y1="538.71" x2="518.391" y2="522.71" style="stroke:#009af9; stroke-width:3.2; stroke-opacity:1"></line>
<line clip-path="url(#clip652)" x1="800.356" y1="892.13" x2="784.356" y2="876.13" style="stroke:#009af9; stroke-width:3.2; stroke-opacity:1"></line>
<line clip-path="url(#clip652)" x1="800.356" y1="892.13" x2="784.356" y2="908.13" style="stroke:#009af9; stroke-width:3.2; stroke-opacity:1"></line>
<line clip-path="url(#clip652)" x1="800.356" y1="892.13" x2="816.356" y2="908.13" style="stroke:#009af9; stroke-width:3.2; stroke-opacity:1"></line>
<line clip-path="url(#clip652)" x1="800.356" y1="892.13" x2="816.356" y2="876.13" style="stroke:#009af9; stroke-width:3.2; stroke-opacity:1"></line>
<line clip-path="url(#clip652)" x1="1098.32" y1="903.35" x2="1082.32" y2="887.35" style="stroke:#009af9; stroke-width:3.2; stroke-opacity:1"></line>
<line clip-path="url(#clip652)" x1="1098.32" y1="903.35" x2="1082.32" y2="919.35" style="stroke:#009af9; stroke-width:3.2; stroke-opacity:1"></line>
<line clip-path="url(#clip652)" x1="1098.32" y1="903.35" x2="1114.32" y2="919.35" style="stroke:#009af9; stroke-width:3.2; stroke-opacity:1"></line>
<line clip-path="url(#clip652)" x1="1098.32" y1="903.35" x2="1114.32" y2="887.35" style="stroke:#009af9; stroke-width:3.2; stroke-opacity:1"></line>
<line clip-path="url(#clip652)" x1="1396.29" y1="1071.38" x2="1380.29" y2="1055.38" style="stroke:#009af9; stroke-width:3.2; stroke-opacity:1"></line>
<line clip-path="url(#clip652)" x1="1396.29" y1="1071.38" x2="1380.29" y2="1087.38" style="stroke:#009af9; stroke-width:3.2; stroke-opacity:1"></line>
<line clip-path="url(#clip652)" x1="1396.29" y1="1071.38" x2="1412.29" y2="1087.38" style="stroke:#009af9; stroke-width:3.2; stroke-opacity:1"></line>
<line clip-path="url(#clip652)" x1="1396.29" y1="1071.38" x2="1412.29" y2="1055.38" style="stroke:#009af9; stroke-width:3.2; stroke-opacity:1"></line>
<line clip-path="url(#clip652)" x1="1694.25" y1="1031.51" x2="1678.25" y2="1015.51" style="stroke:#009af9; stroke-width:3.2; stroke-opacity:1"></line>
<line clip-path="url(#clip652)" x1="1694.25" y1="1031.51" x2="1678.25" y2="1047.51" style="stroke:#009af9; stroke-width:3.2; stroke-opacity:1"></line>
<line clip-path="url(#clip652)" x1="1694.25" y1="1031.51" x2="1710.25" y2="1047.51" style="stroke:#009af9; stroke-width:3.2; stroke-opacity:1"></line>
<line clip-path="url(#clip652)" x1="1694.25" y1="1031.51" x2="1710.25" y2="1015.51" style="stroke:#009af9; stroke-width:3.2; stroke-opacity:1"></line>
<line clip-path="url(#clip652)" x1="1992.22" y1="1260.98" x2="1976.22" y2="1244.98" style="stroke:#009af9; stroke-width:3.2; stroke-opacity:1"></line>
<line clip-path="url(#clip652)" x1="1992.22" y1="1260.98" x2="1976.22" y2="1276.98" style="stroke:#009af9; stroke-width:3.2; stroke-opacity:1"></line>
<line clip-path="url(#clip652)" x1="1992.22" y1="1260.98" x2="2008.22" y2="1276.98" style="stroke:#009af9; stroke-width:3.2; stroke-opacity:1"></line>
<line clip-path="url(#clip652)" x1="1992.22" y1="1260.98" x2="2008.22" y2="1244.98" style="stroke:#009af9; stroke-width:3.2; stroke-opacity:1"></line>
<line clip-path="url(#clip652)" x1="2290.18" y1="1445.72" x2="2274.18" y2="1429.72" style="stroke:#009af9; stroke-width:3.2; stroke-opacity:1"></line>
<line clip-path="url(#clip652)" x1="2290.18" y1="1445.72" x2="2274.18" y2="1461.72" style="stroke:#009af9; stroke-width:3.2; stroke-opacity:1"></line>
<line clip-path="url(#clip652)" x1="2290.18" y1="1445.72" x2="2306.18" y2="1461.72" style="stroke:#009af9; stroke-width:3.2; stroke-opacity:1"></line>
<line clip-path="url(#clip652)" x1="2290.18" y1="1445.72" x2="2306.18" y2="1429.72" style="stroke:#009af9; stroke-width:3.2; stroke-opacity:1"></line>
<polyline clip-path="url(#clip652)" style="stroke:#e26f46; stroke-linecap:butt; stroke-linejoin:round; stroke-width:4; stroke-opacity:1; fill:none" points="
  353.408,1443.78 651.374,1445.72 949.339,1445.72 1247.3,1445.72 1545.27,1445.72 1843.24,1445.72 2141.2,1445.72 
  "></polyline>
<line clip-path="url(#clip652)" x1="353.408" y1="1443.78" x2="353.408" y2="1427.78" style="stroke:#e26f46; stroke-width:3.2; stroke-opacity:1"></line>
<line clip-path="url(#clip652)" x1="353.408" y1="1443.78" x2="337.408" y2="1443.78" style="stroke:#e26f46; stroke-width:3.2; stroke-opacity:1"></line>
<line clip-path="url(#clip652)" x1="353.408" y1="1443.78" x2="353.408" y2="1459.78" style="stroke:#e26f46; stroke-width:3.2; stroke-opacity:1"></line>
<line clip-path="url(#clip652)" x1="353.408" y1="1443.78" x2="369.408" y2="1443.78" style="stroke:#e26f46; stroke-width:3.2; stroke-opacity:1"></line>
<line clip-path="url(#clip652)" x1="651.374" y1="1445.72" x2="651.374" y2="1429.72" style="stroke:#e26f46; stroke-width:3.2; stroke-opacity:1"></line>
<line clip-path="url(#clip652)" x1="651.374" y1="1445.72" x2="635.374" y2="1445.72" style="stroke:#e26f46; stroke-width:3.2; stroke-opacity:1"></line>
<line clip-path="url(#clip652)" x1="651.374" y1="1445.72" x2="651.374" y2="1461.72" style="stroke:#e26f46; stroke-width:3.2; stroke-opacity:1"></line>
<line clip-path="url(#clip652)" x1="651.374" y1="1445.72" x2="667.374" y2="1445.72" style="stroke:#e26f46; stroke-width:3.2; stroke-opacity:1"></line>
<line clip-path="url(#clip652)" x1="949.339" y1="1445.72" x2="949.339" y2="1429.72" style="stroke:#e26f46; stroke-width:3.2; stroke-opacity:1"></line>
<line clip-path="url(#clip652)" x1="949.339" y1="1445.72" x2="933.339" y2="1445.72" style="stroke:#e26f46; stroke-width:3.2; stroke-opacity:1"></line>
<line clip-path="url(#clip652)" x1="949.339" y1="1445.72" x2="949.339" y2="1461.72" style="stroke:#e26f46; stroke-width:3.2; stroke-opacity:1"></line>
<line clip-path="url(#clip652)" x1="949.339" y1="1445.72" x2="965.339" y2="1445.72" style="stroke:#e26f46; stroke-width:3.2; stroke-opacity:1"></line>
<line clip-path="url(#clip652)" x1="1247.3" y1="1445.72" x2="1247.3" y2="1429.72" style="stroke:#e26f46; stroke-width:3.2; stroke-opacity:1"></line>
<line clip-path="url(#clip652)" x1="1247.3" y1="1445.72" x2="1231.3" y2="1445.72" style="stroke:#e26f46; stroke-width:3.2; stroke-opacity:1"></line>
<line clip-path="url(#clip652)" x1="1247.3" y1="1445.72" x2="1247.3" y2="1461.72" style="stroke:#e26f46; stroke-width:3.2; stroke-opacity:1"></line>
<line clip-path="url(#clip652)" x1="1247.3" y1="1445.72" x2="1263.3" y2="1445.72" style="stroke:#e26f46; stroke-width:3.2; stroke-opacity:1"></line>
<line clip-path="url(#clip652)" x1="1545.27" y1="1445.72" x2="1545.27" y2="1429.72" style="stroke:#e26f46; stroke-width:3.2; stroke-opacity:1"></line>
<line clip-path="url(#clip652)" x1="1545.27" y1="1445.72" x2="1529.27" y2="1445.72" style="stroke:#e26f46; stroke-width:3.2; stroke-opacity:1"></line>
<line clip-path="url(#clip652)" x1="1545.27" y1="1445.72" x2="1545.27" y2="1461.72" style="stroke:#e26f46; stroke-width:3.2; stroke-opacity:1"></line>
<line clip-path="url(#clip652)" x1="1545.27" y1="1445.72" x2="1561.27" y2="1445.72" style="stroke:#e26f46; stroke-width:3.2; stroke-opacity:1"></line>
<line clip-path="url(#clip652)" x1="1843.24" y1="1445.72" x2="1843.24" y2="1429.72" style="stroke:#e26f46; stroke-width:3.2; stroke-opacity:1"></line>
<line clip-path="url(#clip652)" x1="1843.24" y1="1445.72" x2="1827.24" y2="1445.72" style="stroke:#e26f46; stroke-width:3.2; stroke-opacity:1"></line>
<line clip-path="url(#clip652)" x1="1843.24" y1="1445.72" x2="1843.24" y2="1461.72" style="stroke:#e26f46; stroke-width:3.2; stroke-opacity:1"></line>
<line clip-path="url(#clip652)" x1="1843.24" y1="1445.72" x2="1859.24" y2="1445.72" style="stroke:#e26f46; stroke-width:3.2; stroke-opacity:1"></line>
<line clip-path="url(#clip652)" x1="2141.2" y1="1445.72" x2="2141.2" y2="1429.72" style="stroke:#e26f46; stroke-width:3.2; stroke-opacity:1"></line>
<line clip-path="url(#clip652)" x1="2141.2" y1="1445.72" x2="2125.2" y2="1445.72" style="stroke:#e26f46; stroke-width:3.2; stroke-opacity:1"></line>
<line clip-path="url(#clip652)" x1="2141.2" y1="1445.72" x2="2141.2" y2="1461.72" style="stroke:#e26f46; stroke-width:3.2; stroke-opacity:1"></line>
<line clip-path="url(#clip652)" x1="2141.2" y1="1445.72" x2="2157.2" y2="1445.72" style="stroke:#e26f46; stroke-width:3.2; stroke-opacity:1"></line>
<path clip-path="url(#clip650)" d="
M1784.47 250.738 L2279.06 250.738 L2279.06 95.2176 L1784.47 95.2176  Z
  " fill="#ffffff" fill-rule="evenodd" fill-opacity="1"></path>
<polyline clip-path="url(#clip650)" style="stroke:#000000; stroke-linecap:butt; stroke-linejoin:round; stroke-width:4; stroke-opacity:1; fill:none" points="
  1784.47,250.738 2279.06,250.738 2279.06,95.2176 1784.47,95.2176 1784.47,250.738 
  "></polyline>
<polyline clip-path="url(#clip650)" style="stroke:#009af9; stroke-linecap:butt; stroke-linejoin:round; stroke-width:4; stroke-opacity:1; fill:none" points="
  1809.03,147.058 1956.43,147.058 
  "></polyline>
<line clip-path="url(#clip650)" x1="1882.73" y1="147.058" x2="1857.13" y2="121.458" style="stroke:#009af9; stroke-width:5.12; stroke-opacity:1"></line>
<line clip-path="url(#clip650)" x1="1882.73" y1="147.058" x2="1857.13" y2="172.658" style="stroke:#009af9; stroke-width:5.12; stroke-opacity:1"></line>
<line clip-path="url(#clip650)" x1="1882.73" y1="147.058" x2="1908.33" y2="172.658" style="stroke:#009af9; stroke-width:5.12; stroke-opacity:1"></line>
<line clip-path="url(#clip650)" x1="1882.73" y1="147.058" x2="1908.33" y2="121.458" style="stroke:#009af9; stroke-width:5.12; stroke-opacity:1"></line>
<path clip-path="url(#clip650)" d="M1980.99 154.106 L1980.99 138.412 L1985.25 138.412 L1985.25 153.944 Q1985.25 157.625 1986.69 159.476 Q1988.12 161.305 1990.99 161.305 Q1994.44 161.305 1996.43 159.106 Q1998.45 156.907 1998.45 153.111 L1998.45 138.412 L2002.71 138.412 L2002.71 164.338 L1998.45 164.338 L1998.45 160.356 Q1996.9 162.717 1994.84 163.875 Q1992.8 165.009 1990.09 165.009 Q1985.62 165.009 1983.31 162.231 Q1980.99 159.453 1980.99 154.106 M1991.71 137.787 L1991.71 137.787 Z" fill="#000000" fill-rule="evenodd" fill-opacity="1"></path><path clip-path="url(#clip650)" d="M2015.6 160.449 L2015.6 174.199 L2011.32 174.199 L2011.32 138.412 L2015.6 138.412 L2015.6 142.347 Q2016.94 140.032 2018.98 138.921 Q2021.04 137.787 2023.89 137.787 Q2028.61 137.787 2031.55 141.537 Q2034.51 145.287 2034.51 151.398 Q2034.51 157.509 2031.55 161.259 Q2028.61 165.009 2023.89 165.009 Q2021.04 165.009 2018.98 163.898 Q2016.94 162.763 2015.6 160.449 M2030.09 151.398 Q2030.09 146.699 2028.15 144.037 Q2026.23 141.352 2022.85 141.352 Q2019.47 141.352 2017.52 144.037 Q2015.6 146.699 2015.6 151.398 Q2015.6 156.097 2017.52 158.782 Q2019.47 161.444 2022.85 161.444 Q2026.23 161.444 2028.15 158.782 Q2030.09 156.097 2030.09 151.398 Z" fill="#000000" fill-rule="evenodd" fill-opacity="1"></path><path clip-path="url(#clip650)" d="M2045.69 160.449 L2045.69 174.199 L2041.41 174.199 L2041.41 138.412 L2045.69 138.412 L2045.69 142.347 Q2047.04 140.032 2049.07 138.921 Q2051.13 137.787 2053.98 137.787 Q2058.7 137.787 2061.64 141.537 Q2064.6 145.287 2064.6 151.398 Q2064.6 157.509 2061.64 161.259 Q2058.7 165.009 2053.98 165.009 Q2051.13 165.009 2049.07 163.898 Q2047.04 162.763 2045.69 160.449 M2060.18 151.398 Q2060.18 146.699 2058.24 144.037 Q2056.32 141.352 2052.94 141.352 Q2049.56 141.352 2047.61 144.037 Q2045.69 146.699 2045.69 151.398 Q2045.69 156.097 2047.61 158.782 Q2049.56 161.444 2052.94 161.444 Q2056.32 161.444 2058.24 158.782 Q2060.18 156.097 2060.18 151.398 Z" fill="#000000" fill-rule="evenodd" fill-opacity="1"></path><path clip-path="url(#clip650)" d="M2093.84 150.31 L2093.84 152.393 L2074.26 152.393 Q2074.54 156.791 2076.9 159.106 Q2079.28 161.398 2083.52 161.398 Q2085.97 161.398 2088.26 160.796 Q2090.58 160.194 2092.85 158.99 L2092.85 163.018 Q2090.55 163.99 2088.15 164.5 Q2085.74 165.009 2083.26 165.009 Q2077.06 165.009 2073.42 161.398 Q2069.81 157.787 2069.81 151.629 Q2069.81 145.264 2073.24 141.537 Q2076.69 137.787 2082.52 137.787 Q2087.75 137.787 2090.79 141.166 Q2093.84 144.523 2093.84 150.31 M2089.58 149.06 Q2089.54 145.565 2087.61 143.481 Q2085.72 141.398 2082.57 141.398 Q2079 141.398 2076.85 143.412 Q2074.72 145.426 2074.4 149.083 L2089.58 149.06 Z" fill="#000000" fill-rule="evenodd" fill-opacity="1"></path><path clip-path="url(#clip650)" d="M2115.85 142.393 Q2115.14 141.977 2114.28 141.791 Q2113.45 141.583 2112.43 141.583 Q2108.82 141.583 2106.87 143.944 Q2104.95 146.282 2104.95 150.68 L2104.95 164.338 L2100.67 164.338 L2100.67 138.412 L2104.95 138.412 L2104.95 142.44 Q2106.29 140.078 2108.45 138.944 Q2110.6 137.787 2113.68 137.787 Q2114.12 137.787 2114.65 137.856 Q2115.18 137.903 2115.83 138.018 L2115.85 142.393 Z" fill="#000000" fill-rule="evenodd" fill-opacity="1"></path><path clip-path="url(#clip650)" d="M2140.02 172.208 L2140.02 175.518 L2115.39 175.518 L2115.39 172.208 L2140.02 172.208 Z" fill="#000000" fill-rule="evenodd" fill-opacity="1"></path><path clip-path="url(#clip650)" d="M2157.15 128.319 L2157.15 131.861 L2153.08 131.861 Q2150.78 131.861 2149.88 132.787 Q2149 133.713 2149 136.12 L2149 138.412 L2156.02 138.412 L2156.02 141.722 L2149 141.722 L2149 164.338 L2144.72 164.338 L2144.72 141.722 L2140.65 141.722 L2140.65 138.412 L2144.72 138.412 L2144.72 136.606 Q2144.72 132.278 2146.73 130.31 Q2148.75 128.319 2153.12 128.319 L2157.15 128.319 Z" fill="#000000" fill-rule="evenodd" fill-opacity="1"></path><path clip-path="url(#clip650)" d="M2180.9 143.389 Q2182.5 140.518 2184.72 139.153 Q2186.94 137.787 2189.95 137.787 Q2194 137.787 2196.2 140.634 Q2198.4 143.458 2198.4 148.689 L2198.4 164.338 L2194.12 164.338 L2194.12 148.828 Q2194.12 145.102 2192.8 143.296 Q2191.48 141.49 2188.77 141.49 Q2185.46 141.49 2183.54 143.69 Q2181.62 145.889 2181.62 149.685 L2181.62 164.338 L2177.34 164.338 L2177.34 148.828 Q2177.34 145.078 2176.02 143.296 Q2174.7 141.49 2171.94 141.49 Q2168.68 141.49 2166.76 143.713 Q2164.84 145.912 2164.84 149.685 L2164.84 164.338 L2160.55 164.338 L2160.55 138.412 L2164.84 138.412 L2164.84 142.44 Q2166.29 140.055 2168.33 138.921 Q2170.37 137.787 2173.17 137.787 Q2175.99 137.787 2177.96 139.222 Q2179.95 140.657 2180.9 143.389 Z" fill="#000000" fill-rule="evenodd" fill-opacity="1"></path><path clip-path="url(#clip650)" d="M2211.02 160.449 L2211.02 174.199 L2206.73 174.199 L2206.73 138.412 L2211.02 138.412 L2211.02 142.347 Q2212.36 140.032 2214.4 138.921 Q2216.46 137.787 2219.3 137.787 Q2224.03 137.787 2226.97 141.537 Q2229.93 145.287 2229.93 151.398 Q2229.93 157.509 2226.97 161.259 Q2224.03 165.009 2219.3 165.009 Q2216.46 165.009 2214.4 163.898 Q2212.36 162.763 2211.02 160.449 M2225.51 151.398 Q2225.51 146.699 2223.56 144.037 Q2221.64 141.352 2218.26 141.352 Q2214.88 141.352 2212.94 144.037 Q2211.02 146.699 2211.02 151.398 Q2211.02 156.097 2212.94 158.782 Q2214.88 161.444 2218.26 161.444 Q2221.64 161.444 2223.56 158.782 Q2225.51 156.097 2225.51 151.398 Z" fill="#000000" fill-rule="evenodd" fill-opacity="1"></path><polyline clip-path="url(#clip650)" style="stroke:#e26f46; stroke-linecap:butt; stroke-linejoin:round; stroke-width:4; stroke-opacity:1; fill:none" points="
  1809.03,198.898 1956.43,198.898 
  "></polyline>
<line clip-path="url(#clip650)" x1="1882.73" y1="198.898" x2="1882.73" y2="173.298" style="stroke:#e26f46; stroke-width:5.12; stroke-opacity:1"></line>
<line clip-path="url(#clip650)" x1="1882.73" y1="198.898" x2="1857.13" y2="198.898" style="stroke:#e26f46; stroke-width:5.12; stroke-opacity:1"></line>
<line clip-path="url(#clip650)" x1="1882.73" y1="198.898" x2="1882.73" y2="224.498" style="stroke:#e26f46; stroke-width:5.12; stroke-opacity:1"></line>
<line clip-path="url(#clip650)" x1="1882.73" y1="198.898" x2="1908.33" y2="198.898" style="stroke:#e26f46; stroke-width:5.12; stroke-opacity:1"></line>
<path clip-path="url(#clip650)" d="M1980.99 180.159 L1985.25 180.159 L1985.25 216.178 L1980.99 216.178 L1980.99 180.159 Z" fill="#000000" fill-rule="evenodd" fill-opacity="1"></path><path clip-path="url(#clip650)" d="M2004.21 193.238 Q2000.79 193.238 1998.79 195.923 Q1996.8 198.585 1996.8 203.238 Q1996.8 207.891 1998.77 210.576 Q2000.76 213.238 2004.21 213.238 Q2007.61 213.238 2009.61 210.553 Q2011.6 207.867 2011.6 203.238 Q2011.6 198.631 2009.61 195.946 Q2007.61 193.238 2004.21 193.238 M2004.21 189.627 Q2009.77 189.627 2012.94 193.238 Q2016.11 196.849 2016.11 203.238 Q2016.11 209.604 2012.94 213.238 Q2009.77 216.849 2004.21 216.849 Q1998.63 216.849 1995.46 213.238 Q1992.31 209.604 1992.31 203.238 Q1992.31 196.849 1995.46 193.238 Q1998.63 189.627 2004.21 189.627 Z" fill="#000000" fill-rule="evenodd" fill-opacity="1"></path><path clip-path="url(#clip650)" d="M2020.69 190.252 L2024.95 190.252 L2030.28 210.483 L2035.58 190.252 L2040.6 190.252 L2045.92 210.483 L2051.23 190.252 L2055.48 190.252 L2048.7 216.178 L2043.68 216.178 L2038.1 194.928 L2032.5 216.178 L2027.48 216.178 L2020.69 190.252 Z" fill="#000000" fill-rule="evenodd" fill-opacity="1"></path><path clip-path="url(#clip650)" d="M2084.12 202.15 L2084.12 204.233 L2064.54 204.233 Q2064.81 208.631 2067.17 210.946 Q2069.56 213.238 2073.79 213.238 Q2076.25 213.238 2078.54 212.636 Q2080.85 212.034 2083.12 210.83 L2083.12 214.858 Q2080.83 215.83 2078.42 216.34 Q2076.02 216.849 2073.54 216.849 Q2067.34 216.849 2063.7 213.238 Q2060.09 209.627 2060.09 203.469 Q2060.09 197.104 2063.52 193.377 Q2066.97 189.627 2072.8 189.627 Q2078.03 189.627 2081.06 193.006 Q2084.12 196.363 2084.12 202.15 M2079.86 200.9 Q2079.81 197.405 2077.89 195.321 Q2075.99 193.238 2072.85 193.238 Q2069.28 193.238 2067.13 195.252 Q2065 197.266 2064.67 200.923 L2079.86 200.9 Z" fill="#000000" fill-rule="evenodd" fill-opacity="1"></path><path clip-path="url(#clip650)" d="M2106.13 194.233 Q2105.41 193.817 2104.56 193.631 Q2103.72 193.423 2102.71 193.423 Q2099.1 193.423 2097.15 195.784 Q2095.23 198.122 2095.23 202.52 L2095.23 216.178 L2090.95 216.178 L2090.95 190.252 L2095.23 190.252 L2095.23 194.28 Q2096.57 191.918 2098.72 190.784 Q2100.88 189.627 2103.96 189.627 Q2104.4 189.627 2104.93 189.696 Q2105.46 189.743 2106.11 189.858 L2106.13 194.233 Z" fill="#000000" fill-rule="evenodd" fill-opacity="1"></path><path clip-path="url(#clip650)" d="M2130.3 224.048 L2130.3 227.358 L2105.67 227.358 L2105.67 224.048 L2130.3 224.048 Z" fill="#000000" fill-rule="evenodd" fill-opacity="1"></path><path clip-path="url(#clip650)" d="M2147.43 180.159 L2147.43 183.701 L2143.35 183.701 Q2141.06 183.701 2140.16 184.627 Q2139.28 185.553 2139.28 187.96 L2139.28 190.252 L2146.29 190.252 L2146.29 193.562 L2139.28 193.562 L2139.28 216.178 L2135 216.178 L2135 193.562 L2130.92 193.562 L2130.92 190.252 L2135 190.252 L2135 188.446 Q2135 184.118 2137.01 182.15 Q2139.03 180.159 2143.4 180.159 L2147.43 180.159 Z" fill="#000000" fill-rule="evenodd" fill-opacity="1"></path><path clip-path="url(#clip650)" d="M2167.52 191.016 L2167.52 195.043 Q2165.72 194.117 2163.77 193.655 Q2161.83 193.192 2159.74 193.192 Q2156.57 193.192 2154.97 194.164 Q2153.4 195.136 2153.4 197.08 Q2153.4 198.562 2154.53 199.418 Q2155.67 200.252 2159.1 201.016 L2160.55 201.34 Q2165.09 202.312 2166.99 204.094 Q2168.91 205.854 2168.91 209.025 Q2168.91 212.636 2166.04 214.742 Q2163.19 216.849 2158.19 216.849 Q2156.11 216.849 2153.84 216.432 Q2151.6 216.039 2149.1 215.228 L2149.1 210.83 Q2151.46 212.057 2153.75 212.682 Q2156.04 213.284 2158.28 213.284 Q2161.29 213.284 2162.91 212.266 Q2164.53 211.224 2164.53 209.349 Q2164.53 207.613 2163.35 206.687 Q2162.2 205.761 2158.24 204.904 L2156.76 204.557 Q2152.8 203.724 2151.04 202.011 Q2149.28 200.275 2149.28 197.266 Q2149.28 193.608 2151.87 191.618 Q2154.47 189.627 2159.23 189.627 Q2161.59 189.627 2163.68 189.974 Q2165.76 190.321 2167.52 191.016 Z" fill="#000000" fill-rule="evenodd" fill-opacity="1"></path><path clip-path="url(#clip650)" d="M2179.81 212.289 L2179.81 226.039 L2175.53 226.039 L2175.53 190.252 L2179.81 190.252 L2179.81 194.187 Q2181.16 191.872 2183.19 190.761 Q2185.25 189.627 2188.1 189.627 Q2192.82 189.627 2195.76 193.377 Q2198.72 197.127 2198.72 203.238 Q2198.72 209.349 2195.76 213.099 Q2192.82 216.849 2188.1 216.849 Q2185.25 216.849 2183.19 215.738 Q2181.16 214.603 2179.81 212.289 M2194.3 203.238 Q2194.3 198.539 2192.36 195.877 Q2190.44 193.192 2187.06 193.192 Q2183.68 193.192 2181.73 195.877 Q2179.81 198.539 2179.81 203.238 Q2179.81 207.937 2181.73 210.622 Q2183.68 213.284 2187.06 213.284 Q2190.44 213.284 2192.36 210.622 Q2194.3 207.937 2194.3 203.238 Z" fill="#000000" fill-rule="evenodd" fill-opacity="1"></path></svg>